<?xml version="1.0" encoding="iso-8859-1"?>
<!-- Uploaded to: SVG Repo, www.svgrepo.com, Generator: SVG Repo Mixer Tools -->
<svg height="800px" width="800px" version="1.1" id="Layer_1" xmlns="http://www.w3.org/2000/svg" xmlns:xlink="http://www.w3.org/1999/xlink" 
	 viewBox="0 0 512 512" xml:space="preserve">
<g>
	<circle style="fill:#FB5D00;" cx="256" cy="256" r="256"/>
	<path style="fill:#E73B00;" d="M512,256c0-4.183-0.118-8.335-0.317-12.467c-0.635-0.65-1.254-1.347-1.905-1.905
		c-1.039-1.193-142.254-142.408-143.34-143.345c-4.296-4.92-9.027-7.823-13.998-7.823l0,0c-9.964,0-18.954,11.612-25.411,27.935
		c-21.473-11.418-45.962-17.915-71.977-17.915c-19.835,0-38.758,3.82-56.161,10.67c-0.63-1.219-4.654-5.325-6.103-5.914
		c-0.855-2.12-2.918-3.62-5.34-3.62c-3.19,0-5.775,2.586-5.775,5.775v6.118c-0.625-0.819-7.286-7.685-8.735-8.274
		c-0.855-2.12-2.913-3.62-5.34-3.62c-3.19,0-5.775,2.586-5.775,5.775v6.118c-0.625-0.819-7.286-7.69-8.735-8.274
		c-0.855-2.12-2.913-3.62-5.34-3.62c-3.19,0-5.775,2.586-5.775,5.775v6.118c-0.625-0.819-7.286-7.69-8.735-8.274
		c-0.855-2.12-2.918-3.62-5.34-3.62c-3.19,0-5.775,2.586-5.775,5.775v69.304l-0.01,0.323l0.015,0.21
		c-13.082,22.595-20.603,48.804-20.603,76.79c0,40.371,15.606,77.082,41.083,104.489c-1.28,9.871-2.161,17.311-2.161,19.389v25.313
		l-0.102,1.024c0,5.591,2.698,10.511,6.815,13.676c0.922,1.198,91.177,91.453,92.375,92.375l1.224,1.224
		C245.796,511.805,250.875,512,256,512C397.384,512,512,397.384,512,256z"/>
	<circle style="fill:#FFFFFF;" cx="255.048" cy="254.019" r="153.539"/>
	<circle style="fill:#D6EAF0;" cx="255.048" cy="254.019" r="123.034"/>
	<circle style="fill:#FFFFFF;" cx="255.048" cy="254.019" r="97.382"/>
	<path style="fill:#AADDEE;" d="M316.877,173.056c0,27.96,30.403,37.596,30.403,45.056c0,20.398,0,27.438,0,59.484
		c0,7.316-12.063,88.632-12.063,96.338v25.313l-0.102,1.024c0,9.559,7.747,17.306,17.306,17.306s17.306-7.747,17.306-17.306
		l-0.061-0.568V373.78c-0.067-7.639-12.063-88.919-12.063-96.189c0-34.038,0-38.461,0-59.479c0-7.46,30.403-17.096,30.403-45.056
		c0-37.56-15.923-82.596-35.558-82.596C332.8,90.46,316.877,135.501,316.877,173.056z"/>
	<path style="fill:#38B5C7;" d="M352.44,417.577c9.549-0.01,17.28-7.752,17.28-17.306l-0.056-0.568V373.78
		c-0.067-7.639-12.063-88.919-12.063-96.189c0-34.038,0-38.461,0-59.479c0-7.46,30.403-17.096,30.403-45.056
		c0-37.56-15.923-82.596-35.558-82.596l0,0v327.117H352.44z"/>
	<path style="fill:#AADDEE;" d="M153.513,107.392c0-3.19-2.586-5.775-5.775-5.775s-5.775,2.586-5.775,5.775v69.304h-8.3v-69.304
		c0-3.19-2.586-5.775-5.775-5.775c-3.19,0-5.775,2.586-5.775,5.775v69.304l-0.01,0.323c0,27.96,30.403,37.596,30.403,45.056v59.484
		c0,7.316-12.063,88.632-12.063,96.338v25.313l-0.102,1.024c0,9.559,7.747,17.306,17.306,17.306c9.559,0,17.306-7.747,17.306-17.306
		l-0.056-0.568v-25.917c-0.067-7.639-12.063-88.919-12.063-96.189v-59.484c0-7.46,30.403-17.096,30.403-45.056l-0.01-0.323h0.01
		v-69.304c0-3.19-2.586-5.775-5.775-5.775c-3.19,0-5.775,2.586-5.775,5.775v69.304h-8.3v-69.304c0-3.19-2.586-5.775-5.775-5.775
		c-3.19,0-5.775,2.586-5.775,5.775v69.304h-8.3v-69.304H153.513z"/>
	<path style="fill:#38B5C7;" d="M173.368,107.392c0-3.19-2.586-5.775-5.775-5.775c-3.19,0-5.775,2.586-5.775,5.775v69.304h-4.152
		v244.838c9.549-0.015,17.28-7.752,17.28-17.306l-0.056-0.568v-25.917c-0.067-7.639-12.063-88.919-12.063-96.189v-59.479
		c0-7.46,30.403-17.096,30.403-45.056l-0.01-0.323h0.01v-69.304c0-3.19-2.586-5.775-5.775-5.775c-3.19,0-5.775,2.586-5.775,5.775
		v69.304h-8.3v-69.304H173.368z"/>
</g>
</svg>